<svg width="196" height="97" viewBox="0 0 196 97" fill="none" xmlns="http://www.w3.org/2000/svg">
<path d="M2.944 3.2L13.184 3.2L19.2 45.696H19.968L25.984 3.2L36.224 3.2L36.224 48L31.232 48L31.232 5.504H30.464L24.448 48H14.72L8.704 5.504H7.936L7.936 48H2.944L2.944 3.2ZM68.3715 36.864H49.1715L45.9075 48H40.1475L53.7155 3.2L63.8275 3.2L77.3955 48H71.6355L68.3715 36.864ZM58.3875 5.504L50.6435 31.872H66.8995L59.1555 5.504H58.3875ZM82.215 3.2L113.703 3.2V8.192L100.647 8.192V48L95.271 48V8.192L82.215 8.192V3.2ZM137.403 43.904C139.237 43.904 140.795 43.6053 142.075 43.008C143.397 42.368 144.464 41.536 145.275 40.512C146.128 39.4453 146.747 38.2507 147.131 36.928C147.557 35.5627 147.771 34.1333 147.771 32.64V31.872L153.147 31.872V32.64C153.147 34.9013 152.805 37.0347 152.123 39.04C151.44 41.0027 150.437 42.7307 149.115 44.224C147.792 45.6747 146.149 46.8267 144.187 47.68C142.224 48.4907 139.963 48.896 137.403 48.896C132.453 48.896 128.592 47.3387 125.819 44.224C123.045 41.1093 121.659 36.5653 121.659 30.592V20.608C121.659 14.8053 123.045 10.304 125.819 7.104C128.592 3.904 132.453 2.304 137.403 2.304C139.963 2.304 142.224 2.73066 144.187 3.584C146.149 4.39467 147.792 5.54667 149.115 7.04C150.437 8.49067 151.44 10.2187 152.123 12.224C152.805 14.1867 153.147 16.2987 153.147 18.56V19.328L147.771 19.328V18.56C147.728 17.1093 147.493 15.7013 147.067 14.336C146.683 12.9707 146.064 11.776 145.211 10.752C144.4 9.68533 143.355 8.85333 142.075 8.256C140.795 7.616 139.237 7.296 137.403 7.296C133.947 7.296 131.344 8.55466 129.595 11.072C127.888 13.5893 127.035 16.896 127.035 20.992V30.208C127.035 34.6027 127.888 37.9947 129.595 40.384C131.344 42.7307 133.947 43.904 137.403 43.904ZM161.422 3.2L166.798 3.2V23.04L185.87 23.04V3.2L191.246 3.2V48H185.87V28.032L166.798 28.032V48H161.422V3.2Z" fill="#A8B4F7"/>
<path d="M3.84 51.2H35.328V56.192H22.272L22.272 96H16.896L16.896 56.192H3.84L3.84 51.2ZM44.5635 51.2H72.9795V56.192H61.4595L61.4595 91.008H72.9795V96H44.5635V91.008H56.0835L56.0835 56.192H44.5635V51.2ZM83.943 51.2H89.319V91.008L112.743 91.008V96L83.943 96V51.2ZM123.579 51.2H150.715V56.192H128.955V71.04H150.331V76.032H128.955V91.008H151.099V96H123.579V51.2ZM186.894 64.128C186.894 62.6773 186.595 61.3973 185.998 60.288C185.443 59.1787 184.675 58.2613 183.694 57.536C182.713 56.8107 181.582 56.256 180.302 55.872C179.022 55.488 177.678 55.296 176.27 55.296C175.033 55.296 173.859 55.4667 172.75 55.808C171.641 56.1067 170.638 56.5547 169.742 57.152C168.889 57.7493 168.206 58.496 167.694 59.392C167.182 60.2453 166.926 61.248 166.926 62.4V62.784C166.926 64.0213 167.182 65.088 167.694 65.984C168.206 66.8373 168.953 67.584 169.934 68.224C170.958 68.8213 172.217 69.3333 173.71 69.76C175.203 70.144 176.953 70.4853 178.958 70.784C183.651 71.5093 187.107 72.896 189.326 74.944C191.545 76.9493 192.654 79.6587 192.654 83.072V83.84C192.654 85.76 192.313 87.5307 191.63 89.152C190.99 90.7307 190.009 92.096 188.686 93.248C187.406 94.4 185.806 95.296 183.886 95.936C181.966 96.576 179.747 96.896 177.23 96.896C174.371 96.896 171.833 96.4907 169.614 95.68C167.438 94.8267 165.603 93.6747 164.11 92.224C162.659 90.7307 161.55 89.0027 160.782 87.04C160.014 85.0347 159.63 82.8587 159.63 80.512V78.592H165.006V80.128C165.006 84.0533 166.073 86.9973 168.206 88.96C170.382 90.9227 173.39 91.904 177.23 91.904C180.558 91.904 183.054 91.1787 184.718 89.728C186.425 88.2347 187.278 86.272 187.278 83.84V83.456C187.278 81.1093 186.403 79.3173 184.654 78.08C182.947 76.8427 180.153 75.9467 176.27 75.392C174.009 75.0933 171.961 74.6453 170.126 74.048C168.334 73.408 166.798 72.5973 165.518 71.616C164.238 70.592 163.257 69.376 162.574 67.968C161.891 66.56 161.55 64.896 161.55 62.976V62.208C161.55 60.4587 161.913 58.8587 162.638 57.408C163.363 55.9573 164.366 54.6987 165.646 53.632C166.969 52.5653 168.526 51.7547 170.318 51.2C172.153 50.6027 174.158 50.304 176.334 50.304C178.851 50.304 181.091 50.6667 183.054 51.392C185.059 52.1173 186.745 53.0987 188.11 54.336C189.475 55.5307 190.499 56.96 191.182 58.624C191.907 60.2453 192.27 61.952 192.27 63.744V66.432H186.894V64.128Z" fill="#A8B4F7"/>
</svg>
